<?xml version="1.0" standalone="no"?><!DOCTYPE svg PUBLIC "-//W3C//DTD SVG 1.1//EN" "http://www.w3.org/Graphics/SVG/1.1/DTD/svg11.dtd"><svg t="1558277039942" class="icon" style="" viewBox="0 0 1024 1024" version="1.1" xmlns="http://www.w3.org/2000/svg" p-id="9525" xmlns:xlink="http://www.w3.org/1999/xlink" width="200" height="200"><defs><style type="text/css"></style></defs><path d="M512 87.905072c236.573043 0 429.03852 190.252065 429.03852 424.094928S748.573043 936.094928 512 936.094928 82.96148 745.841839 82.96148 512 275.426957 87.905072 512 87.905072m0-17.670451c-246.710938 0-446.708971 197.784622-446.708971 441.765379 0 243.971547 199.998033 441.765379 446.708971 441.765379S958.708971 755.971547 958.708971 512c0-243.980757-199.998033-441.765379-446.708971-441.765379z" p-id="9526"></path><path d="M421.701414 724.323756c-20.259416 0-33.874505-16.315594-33.874505-40.604789V361.230158c0-24.288173 13.615089-40.60479 33.874505-40.60479 7.826246 0 16.040325 2.424212 24.408923 7.199982l282.401812 161.244405c14.857383 8.486278 23.045879 20.349467 23.045879 33.403784s-8.188496 24.918529-23.045879 33.403784l-282.401812 161.244404c-8.369621 4.776793-16.5837 7.202029-24.408923 7.202029z m0-386.027937c-14.625092 0-16.204054 16.040325-16.204053 22.933316v322.488808c0 6.894014 1.578961 22.934339 16.204053 22.934339 4.650927 0 10.060123-1.686409 15.643282-4.879124L719.746508 540.528754c8.990768-5.124717 14.142092-11.70867 14.142092-18.054192s-5.151323-12.929474-14.142092-18.054191L437.344696 343.175967c-5.583159-3.192715-10.993378-4.880147-15.643282-4.880148z" p-id="9527"></path></svg>